HIERARCHY
ROOT Hips
{
 OFFSET 0.000000 0.000000 0.000000
 CHANNELS 6 Xposition Yposition Zposition Yrotation Xrotation Zrotation
 JOINT Chest
 {
  OFFSET 0.000000 103.927959 -11.547555
  CHANNELS 3 Yrotation Xrotation Zrotation
  JOINT Chest2
  {
   OFFSET 0.000000 116.259650 0.000000
   CHANNELS 3 Yrotation Xrotation Zrotation
   JOINT Chest3
   {
    OFFSET 0.000000 106.135078 0.000000
    CHANNELS 3 Yrotation Xrotation Zrotation
    JOINT Chest4
    {
     OFFSET 0.000000 106.016608 0.000000
     CHANNELS 3 Yrotation Xrotation Zrotation
     JOINT Neck
     {
      OFFSET 0.000000 148.478086 0.000000
      CHANNELS 3 Yrotation Xrotation Zrotation
      JOINT Head
      {
       OFFSET 0.000000 98.684725 0.000000
       CHANNELS 3 Yrotation Xrotation Zrotation
       End Site
       {
        OFFSET 0.000000 183.657339 0.000000
       }
      }
     }
     JOINT RightCollar
     {
      OFFSET -32.301251 83.229558 0.000000
      CHANNELS 3 Yrotation Xrotation Zrotation
      JOINT RightShoulder
      {
       OFFSET -148.983121 0.000000 0.000000
       CHANNELS 3 Yrotation Xrotation Zrotation
       JOINT RightElbow
       {
        OFFSET 0.000000 -318.416921 0.000000
        CHANNELS 3 Yrotation Xrotation Zrotation
        JOINT RightWrist
        {
         OFFSET 0.000000 -260.384535 0.000000
         CHANNELS 3 Yrotation Xrotation Zrotation
         End Site
         {
          OFFSET 0.000000 -194.729091 0.000000
         }
        }
       }
      }
     }
     JOINT LeftCollar
     {
      OFFSET 32.301251 83.229558 0.000000
      CHANNELS 3 Yrotation Xrotation Zrotation
      JOINT LeftShoulder
      {
       OFFSET 148.983121 0.000000 0.000000
       CHANNELS 3 Yrotation Xrotation Zrotation
       JOINT LeftElbow
       {
        OFFSET 0.000000 -318.416921 0.000000
        CHANNELS 3 Yrotation Xrotation Zrotation
        JOINT LeftWrist
        {
         OFFSET 0.000000 -260.384535 0.000000
         CHANNELS 3 Yrotation Xrotation Zrotation
         End Site
         {
          OFFSET 0.000000 -194.729091 0.000000
         }
        }
       }
      }
     }
    }
   }
  }
 }
 JOINT RightHip
 {
  OFFSET -85.448433 0.000000 0.000000
  CHANNELS 3 Yrotation Xrotation Zrotation
  JOINT RightKnee
  {
   OFFSET 0.000000 -444.902608 0.000000
   CHANNELS 3 Yrotation Xrotation Zrotation
   JOINT RightAnkle
   {
    OFFSET 0.000000 -434.916856 0.000000
    CHANNELS 3 Yrotation Xrotation Zrotation
    JOINT RightToe
    {
     OFFSET 0.000000 -65.483541 148.093546
     CHANNELS 3 Yrotation Xrotation Zrotation
     End Site
     {
      OFFSET 0.000000 -15.533754 66.277348
     }
    }
   }
  }
 }
 JOINT LeftHip
 {
  OFFSET 85.448433 0.000000 0.000000
  CHANNELS 3 Yrotation Xrotation Zrotation
  JOINT LeftKnee
  {
   OFFSET 0.000000 -444.902608 0.000000
   CHANNELS 3 Yrotation Xrotation Zrotation
   JOINT LeftAnkle
   {
    OFFSET 0.000000 -434.916856 0.000000
    CHANNELS 3 Yrotation Xrotation Zrotation
    JOINT LeftToe
    {
     OFFSET 0.000000 -65.483541 148.093546
     CHANNELS 3 Yrotation Xrotation Zrotation
     End Site
     {
      OFFSET 0.000000 -15.533754 66.277348
     }
    }
   }
  }
 }
}
MOTION
Frames: 16
Frame Time: 0.016667
-290.763924 926.907296 3784.384449 -155.811218 -0.820180 0.300721 0.607376 1.245127 0.108675 0.264880 -5.272808 0.046863 0.263763 0.547562 0.073753 0.203387 6.247385 0.055424 4.264484 19.963088 0.497021 7.623445 1.117821 -0.389517 0.892747 -1.035324 10.132137 36.442048 -19.618347 -15.214234 -12.278066 -50.117408 44.014337 -20.681200 -16.125958 4.676171 -1.817688 2.636835 -5.167474 -26.062030 -12.670944 38.613805 -14.714217 -68.300192 -20.892458 -16.619799 -11.237460 -7.208532 -1.643555 -6.033804 -9.306065 0.919749 27.204836 0.537836 -1.113881 -17.690446 7.049715 -0.029648 -2.165103 1.865951 5.241946 -15.538058 2.700363 -1.164369 31.251959 -0.816650 11.047584 -16.426396 3.422586 0.000000 -0.000000 0.000000
-291.537589 927.211853 3783.969389 -155.845904 -0.843016 0.325038 0.603898 1.231993 0.099861 0.263757 -5.278658 0.042957 0.262643 0.541712 0.069733 0.202243 6.242996 0.052394 4.282468 19.949986 0.484402 7.660438 1.095002 -0.418638 0.863661 -1.038483 10.091753 36.434264 -19.637969 -15.145933 -12.230429 -50.134508 43.986128 -20.699890 -16.165650 4.658950 -1.812305 2.615003 -5.156701 -26.034227 -12.674349 38.580542 -14.697995 -68.307786 -20.911335 -16.614546 -11.232836 -7.216951 -1.714245 -5.884517 -9.298949 0.961569 26.996591 0.428989 -1.126733 -17.602970 7.074260 -0.031220 -2.195344 1.918835 5.242190 -15.368912 2.705149 -1.253772 31.062050 -0.951377 11.137069 -16.374214 3.477781 0.000000 -0.000000 0.000000
-292.311254 927.516410 3783.554328 -155.880600 -0.865837 0.349368 0.600430 1.218852 0.091055 0.262638 -5.284511 0.039054 0.261527 0.535860 0.065716 0.201102 6.238605 0.049366 4.300475 19.936878 0.471810 7.697472 1.072183 -0.447722 0.834614 -1.041693 10.051346 36.426385 -19.657533 -15.077591 -12.182794 -50.151615 43.957941 -20.718557 -16.205325 4.641685 -1.806932 2.593179 -5.145910 -26.006393 -12.677745 38.547300 -14.681742 -68.315378 -20.930234 -16.609290 -11.228213 -7.225370 -1.784953 -5.735247 -9.292138 1.003641 26.788309 0.320266 -1.139449 -17.515472 7.098721 -0.032831 -2.225565 1.971733 5.242410 -15.199763 2.709826 -1.342599 30.871866 -1.085256 11.226617 -16.322125 3.533009 0.000000 0.000000 0.000000
-292.964507 927.852090 3783.185368 -155.910404 -0.880337 0.375895 0.595900 1.205103 0.082170 0.261051 -5.290634 0.035118 0.259944 0.529737 0.061620 0.199605 6.234012 0.046279 4.318987 19.920177 0.458973 7.735615 1.042746 -0.477612 0.816857 -1.047080 10.018283 36.424297 -19.676269 -15.024872 -12.132362 -50.165135 43.922976 -20.730772 -16.236559 4.631863 -1.804180 2.567340 -5.135303 -25.982475 -12.674907 38.522072 -14.671919 -68.320767 -20.944842 -16.607738 -11.226673 -7.227899 -1.834826 -5.598131 -9.285126 1.026136 26.583446 0.216012 -1.150978 -17.422948 7.100838 -0.034449 -2.249167 2.038071 5.249263 -15.040594 2.705572 -1.402402 30.671483 -1.187950 11.290488 -16.251692 3.577700 0.000000 0.000000 0.000000
-293.462311 928.239712 3782.874576 -155.935748 -0.883879 0.406683 0.590375 1.189917 0.072336 0.259066 -5.297397 0.030764 0.257964 0.522975 0.057064 0.197777 6.228939 0.042846 4.338887 19.898519 0.446767 7.776253 1.004151 -0.507060 0.816880 -1.055675 9.997168 36.431772 -19.694034 -14.995715 -12.074143 -50.176203 43.875377 -20.727314 -16.254901 4.630272 -1.805683 2.534654 -5.124586 -25.961490 -12.663192 38.508678 -14.675629 -68.324852 -20.951004 -16.613980 -11.230460 -7.220493 -1.845448 -5.476312 -9.278215 1.013332 26.384006 0.115312 -1.161130 -17.321396 7.063833 -0.036159 -2.263733 2.132469 5.269732 -14.892177 2.685876 -1.416655 30.454561 -1.243822 11.313948 -16.153863 3.606871 0.000000 -0.000000 -0.000000
-293.839703 928.658457 3782.609885 -155.956189 -0.879104 0.439651 0.583787 1.174122 0.062424 0.256611 -5.304431 0.026377 0.255518 0.515943 0.052428 0.195591 6.223662 0.039353 4.359290 19.873273 0.434309 7.818009 0.958949 -0.537334 0.828164 -1.066398 9.983431 36.445111 -19.711036 -14.982210 -12.013095 -50.183645 43.820985 -20.717428 -16.264828 4.636160 -1.809798 2.497953 -5.114049 -25.944467 -12.645242 38.503283 -14.685783 -68.326748 -20.952870 -16.623935 -11.237311 -7.207192 -1.835261 -5.366622 -9.270820 0.981071 26.187988 0.019202 -1.170159 -17.214834 7.004531 -0.037821 -2.271695 2.240296 5.296702 -14.753731 2.657391 -1.402439 30.227716 -1.269393 11.311770 -16.037597 3.625469 0.000000 0.000000 0.000000
-294.081378 929.076985 3782.401194 -155.965505 -0.865636 0.470763 0.574859 1.159601 0.054953 0.252999 -5.310896 0.023084 0.251918 0.509480 0.048768 0.192615 6.218813 0.036597 4.378031 19.844945 0.418681 7.857813 0.908172 -0.573072 0.842436 -1.078189 9.970683 36.459021 -19.727053 -14.976251 -11.961370 -50.180420 43.770563 -20.722401 -16.271315 4.654706 -1.814213 2.461707 -5.104779 -25.938391 -12.622774 38.502383 -14.687579 -68.321583 -20.958570 -16.629055 -11.243560 -7.194240 -1.838681 -5.271747 -9.261066 0.956846 25.992873 -0.065094 -1.177697 -17.110304 6.951081 -0.039063 -2.273732 2.331103 5.315709 -14.632921 2.631053 -1.381722 30.000559 -1.282609 11.302464 -15.911457 3.637829 0.000000 0.000000 0.000000
-294.194748 929.493372 3782.249056 -155.961310 -0.841362 0.500464 0.562482 1.145218 0.050128 0.247726 -5.317295 0.020979 0.246665 0.503082 0.046128 0.188476 6.214014 0.034612 4.394392 19.813233 0.398628 7.894757 0.851304 -0.616364 0.856268 -1.090340 9.955694 36.474371 -19.742782 -14.976599 -11.924684 -50.158785 43.727286 -20.760693 -16.274111 4.699263 -1.817595 2.427061 -5.096704 -25.948248 -12.592279 38.505484 -14.673900 -68.307087 -20.971569 -16.625135 -11.246152 -7.184037 -1.874584 -5.193207 -9.251304 0.955381 25.793531 -0.133502 -1.182589 -17.008075 6.913618 -0.039740 -2.269823 2.393652 5.322804 -14.531468 2.606195 -1.357505 29.771847 -1.284106 11.290192 -15.775052 3.644235 0.000000 0.000000 0.000000
-294.172401 929.909543 3782.152919 -155.945978 -0.808415 0.528318 0.547759 1.132109 0.047743 0.241293 -5.323126 0.019967 0.240257 0.497254 0.044463 0.183545 6.209642 0.033363 4.409096 19.778447 0.375387 7.929776 0.788879 -0.665159 0.873084 -1.103548 9.941683 36.490322 -19.757515 -14.984510 -11.897398 -50.126501 43.688026 -20.813833 -16.273410 4.756493 -1.821263 2.392866 -5.089905 -25.969053 -12.557285 38.513043 -14.651882 -68.285518 -20.988401 -16.616372 -11.248161 -7.174195 -1.924056 -5.129504 -9.239172 0.961841 25.595131 -0.190247 -1.186035 -16.907881 6.882035 -0.039996 -2.259999 2.439181 5.321993 -14.447664 2.583484 -1.326904 29.542819 -1.273432 11.270748 -15.628763 3.644391 -0.000000 0.000000 -0.000000
-293.976798 930.299928 3782.121029 -155.920443 -0.772778 0.548970 0.532723 1.125567 0.049695 0.234513 -5.326033 0.020883 0.233505 0.494350 0.044690 0.178500 6.207463 0.033540 4.422128 19.742019 0.349765 7.962561 0.723504 -0.717908 0.894896 -1.118867 9.931924 36.499003 -19.768918 -14.995621 -11.874635 -50.099810 43.654069 -20.847727 -16.274927 4.791532 -1.826869 2.360155 -5.085704 -25.992807 -12.530070 38.523012 -14.628117 -68.258787 -21.006783 -16.606817 -11.255129 -7.163776 -1.964784 -5.078801 -9.215775 0.959331 25.410623 -0.240628 -1.191195 -16.815963 6.854114 -0.039934 -2.245007 2.470959 5.310874 -14.384061 2.575800 -1.302677 29.326809 -1.266400 11.250071 -15.482339 3.641805 0.000000 -0.000000 0.000000
-293.578165 930.656597 3782.161856 -155.882693 -0.734777 0.558476 0.517671 1.127737 0.057723 0.227437 -5.325061 0.024500 0.226459 0.495326 0.047589 0.173435 6.208195 0.035732 4.432954 19.703310 0.321015 7.992395 0.654018 -0.775849 0.924180 -1.138397 9.928547 36.497413 -19.775246 -15.010242 -11.852614 -50.086804 43.625170 -20.843284 -16.280488 4.783033 -1.836775 2.328690 -5.084345 -26.019826 -12.515842 38.537011 -14.600455 -68.223607 -21.030979 -16.595569 -11.273129 -7.151110 -1.989896 -5.040034 -9.173683 0.939017 25.240216 -0.290323 -1.200715 -16.733956 6.835945 -0.039458 -2.222788 2.484870 5.281028 -14.345302 2.591917 -1.291931 29.130163 -1.272807 11.236287 -15.339434 3.637977 0.000000 -0.000000 0.000000
-293.006276 930.987482 3782.266930 -155.834755 -0.694082 0.560805 0.502310 1.136474 0.070095 0.220016 -5.321166 0.030050 0.219071 0.499223 0.052385 0.168258 6.211119 0.039355 4.442085 19.662974 0.289848 8.019971 0.581613 -0.837804 0.958465 -1.160026 9.929369 36.488546 -19.778252 -15.028060 -11.835090 -50.079398 43.601531 -20.819605 -16.288309 4.752331 -1.848616 2.298702 -5.085584 -26.049771 -12.509383 38.553467 -14.571066 -68.183268 -21.056708 -16.583544 -11.296103 -7.137885 -2.006196 -5.014281 -9.120296 0.909721 25.083690 -0.333706 -1.211979 -16.660224 6.821454 -0.038682 -2.195397 2.485043 5.240994 -14.326754 2.623050 -1.287330 28.946543 -1.282651 11.221227 -15.196398 3.631407 0.000000 0.000000 0.000000
-292.312917 931.290806 3782.419083 -155.783628 -0.655695 0.562454 0.487783 1.150632 0.083495 0.212914 -5.314861 0.036051 0.212001 0.505531 0.057665 0.163356 6.215851 0.043342 4.451059 19.624378 0.259256 8.047065 0.512415 -0.898589 0.992341 -1.178498 9.931210 36.473517 -19.780858 -15.043778 -11.828471 -50.069573 43.585092 -20.799899 -16.298782 4.728585 -1.856966 2.271934 -5.090022 -26.073667 -12.507327 38.565557 -14.552951 -68.149552 -21.068922 -16.577510 -11.311378 -7.128173 -2.011905 -5.002895 -9.068984 0.880959 24.953337 -0.359143 -1.220242 -16.596086 6.790194 -0.038019 -2.169767 2.487111 5.213819 -14.317053 2.655712 -1.279948 28.770267 -1.282038 11.186415 -15.052021 3.621031 0.000000 -0.000000 0.000000
-291.518982 931.567912 3782.617376 -155.731494 -0.621715 0.565185 0.474593 1.170983 0.098048 0.206351 -5.305803 0.042558 0.205469 0.514591 0.063506 0.158899 6.222647 0.047750 4.461921 19.586931 0.229016 8.077503 0.445435 -0.959273 1.026528 -1.190984 9.933838 36.450540 -19.783378 -15.057630 -11.839372 -50.052725 43.578420 -20.793905 -16.314144 4.723900 -1.859466 2.249601 -5.099429 -26.088880 -12.510742 38.570491 -14.556036 -68.126782 -21.055960 -16.582808 -11.311786 -7.123871 -2.001043 -5.005762 -9.026123 0.854523 24.854036 -0.357791 -1.223310 -16.542179 6.725816 -0.037613 -2.146325 2.503109 5.213780 -14.311297 2.683972 -1.264200 28.597268 -1.262077 11.117855 -14.904807 3.605305 0.000000 0.000000 0.000000
-290.603576 931.817458 3782.862750 -155.676172 -0.590043 0.567234 0.462240 1.196750 0.113641 0.200108 -5.294338 0.049521 0.199256 0.526059 0.069836 0.154718 6.231249 0.052528 4.472605 19.551235 0.199330 8.107425 0.381684 -1.018818 1.060305 -1.200311 9.937476 36.421390 -19.785541 -15.069359 -11.861196 -50.033490 43.578961 -20.791884 -16.332157 4.726209 -1.858494 2.230500 -5.112058 -26.098055 -12.518561 38.571050 -14.570284 -68.110631 -21.029555 -16.594084 -11.304473 -7.123048 -1.979635 -5.023020 -8.985392 0.828389 24.780867 -0.338607 -1.223380 -16.497796 6.644702 -0.037313 -2.124660 2.521011 5.226595 -14.314414 2.713722 -1.245866 28.431571 -1.231957 11.029554 -14.756269 3.585579 -0.000000 -0.000000 -0.000000
-289.555805 932.033644 3783.140852 -155.618104 -0.559398 0.569801 0.450344 1.224476 0.126590 0.194193 -5.282005 0.055303 0.193369 0.538394 0.075017 0.150694 6.240501 0.056438 4.478487 19.522431 0.173861 8.127059 0.330225 -1.068808 1.086093 -1.209708 9.939667 36.392535 -19.789371 -15.072949 -11.880549 -50.017703 43.580992 -20.787826 -16.346533 4.728407 -1.855724 2.212742 -5.123239 -26.100135 -12.524222 38.568749 -14.578752 -68.099916 -21.009741 -16.602052 -11.298226 -7.124035 -1.963942 -5.056380 -8.941115 0.806328 24.731456 -0.316629 -1.222297 -16.462271 6.575498 -0.037094 -2.110422 2.520345 5.232452 -14.329788 2.749197 -1.233076 28.279656 -1.204874 10.945031 -14.609720 3.565156 0.000000 0.000000 0.000000
